# xmcd CD database file
#
# Track frame offsets:
#	150
#	27190
#	65470
#	89887
#	148318
#	182573
#	219149
#	247267
#	285715
#
# Disc length: 4438 seconds
#
# Revision: 0
# Processed by: cddbd v1.5PL3 Copyright (c) Steve Scherf et al.
# Submitted via: CDex 1.50Beta7
#
DISCID=8c115409
DTITLE=Franco D'Andrea - Franco D'Andrea plays Monk
DYEAR=2003
DGENRE=Jazz
TTITLE0=Pannonica
TTITLE1=Blue Monk
TTITLE2=Rhythn-o-ning
TTITLE3=Round Midnigtht
TTITLE4=Monk's  Mood
TTITLE5=Misterioso
TTITLE6=Monk's Dream
TTITLE7=Light Blue
TTITLE8=Let's Call This
EXTD=YEAR: 2003
EXTT0=
EXTT1=
EXTT2=
EXTT3=
EXTT4=
EXTT5=
EXTT6=
EXTT7=
EXTT8=
PLAYORDER=
